<?xml version="1.0" encoding="utf-8"?>
<!-- Generator: Adobe Illustrator 19.1.0, SVG Export Plug-In . SVG Version: 6.00 Build 0)  -->
<svg version="1.1" id="Ebene_1" xmlns="http://www.w3.org/2000/svg" xmlns:xlink="http://www.w3.org/1999/xlink" x="0px" y="0px"
	 viewBox="176.9 170 488.1 255.3" style="enable-background:new 176.9 170 488.1 255.3;" xml:space="preserve">
<style type="text/css">
	.st0{fill:#488DCB;}
	.st1{fill:#262628;}
</style>
<g id="XMLID_3030_">
	<g id="XMLID_2391_">
		<path id="XMLID_2465_" class="st0" d="M321.6,218.4l25.4-23.2h34.1v20.6h-36.8v20.5h36.8V257h-59.5V218.4z"/>
		<path id="XMLID_2463_" class="st0" d="M426.2,195.2h29.3V257h-22.7v-41.1h-22.5V257h-22.7v-82.3h22.7v34.9L426.2,195.2z"/>
		<path id="XMLID_2397_" class="st0" d="M491.3,257h-29.5v-38.6l25.5-23.2h42.4V257H507v-14.3L491.3,257z M507.1,215.9h-22.5v20.5
			h22.5V215.9z"/>
		<path id="XMLID_2394_" class="st0" d="M604.1,257h-42.8l-25.2-23.1v-38.7h42.4l25.6,23.1V257z M558.9,236.4h22.5v-20.5h-22.5
			V236.4z"/>
		<path id="XMLID_2392_" class="st0" d="M633.2,226.2h27.7v28.1l-25.5,23.2h-17V257h19.8v-10.3h-27.7v-28.4l25.4-23.1h25v20.6h-27.7
			V226.2z"/>
	</g>
	<g id="XMLID_2835_">
		<path id="XMLID_2389_" class="st1" d="M266.5,273.5l9-8.2H289v20.6h-22.5v38.7h-22.7v-64.5l25.5-23.2H289v20.6h-22.5V273.5z"/>
		<path id="XMLID_2387_" class="st1" d="M316.1,242.3v82.3h-22.7v-82.3H316.1z"/>
		<path id="XMLID_2384_" class="st1" d="M389.2,304v20.6h-52.3l-15.7-14.3v-24.4l25.4-23.1h42.5v26.7L373.7,304H389.2z M366.5,283.5
			H344V304h22.5V283.5z"/>
		<path id="XMLID_2382_" class="st1" d="M395.5,262.9h22.7v14.4l15.8-14.4h29.4v61.8h-22.7v-41.1h-22.5v41.1h-22.7L395.5,262.9
			L395.5,262.9z"/>
		<path id="XMLID_2380_" class="st1" d="M492.6,293.8h27.7v28.1l-25.5,23.2h-17v-20.5h19.8v-10.3h-27.7v-28.4l25.4-23.1h25v20.6
			h-27.7L492.6,293.8L492.6,293.8z"/>
	</g>
	<g id="XMLID_2836_">
		<path id="XMLID_2377_" class="st1" d="M219.8,330.5h29.4v38.7L224,392.3h-42.8V310H204v35L219.8,330.5z M204,351.2v20.5h22.5
			v-20.5H204z"/>
		<path id="XMLID_2375_" class="st1" d="M323.5,392.3h-22.7v-14.4L285,392.3h-29.4v-61.8h22.7v41.1h22.5v-41.1h22.7L323.5,392.3
			L323.5,392.3z"/>
		<path id="XMLID_2372_" class="st1" d="M404.9,406.3l-16.2,14.4L352.5,380v12.3h-22.6v-38.6l25.4-23.2h42.5v37.2l-16,14.3
			L404.9,406.3z M375.1,351.2h-22.5v20.5h22.5V351.2z"/>
		<path id="XMLID_2369_" class="st1" d="M433.7,392.3h-29.5v-38.6l25.4-23.2h42.5v67.3l-22.4,20.4l-22.9,0.2V398l22.5-0.2v-19.9
			L433.7,392.3z M449.4,351.2h-22.5v20.5h22.5V351.2z"/>
	</g>
</g>
<g id="XMLID_1_">
</g>
<g id="XMLID_2_">
</g>
<g id="XMLID_3_">
</g>
<g id="XMLID_4_">
</g>
<g id="XMLID_5_">
</g>
<g id="XMLID_6_">
</g>
</svg>
