<?xml version="1.0" encoding="utf-8"?>
<!-- Generator: Adobe Illustrator 19.1.0, SVG Export Plug-In . SVG Version: 6.00 Build 0)  -->
<svg version="1.1" id="Ebene_1" xmlns="http://www.w3.org/2000/svg" xmlns:xlink="http://www.w3.org/1999/xlink" x="0px" y="0px"
	 viewBox="539 477.6 1920 359.7" style="enable-background:new 539 477.6 1920 359.7;" xml:space="preserve">
<style type="text/css">
	.st0{display:none;}
	.st1{display:inline;fill:#0F2234;}
	.st2{display:inline;}
	.st3{fill:#FFFFFF;}
	.st4{fill:#0095D1;}
	.st5{fill:#45AC4D;}
	.st6{fill:#3F3F3F;}
	.st7{fill:#4D4C4C;}
	.st8{fill:#D34040;}
	.st9{fill:#C93A3A;}
	.st10{fill:#B92020;}
	.st11{fill:url(#SVGID_1_);}
	.st12{fill:url(#SVGID_2_);}
	.st13{fill:url(#SVGID_3_);}
	.st14{fill:url(#SVGID_4_);}
	.st15{fill:#E95252;}
	.st16{fill:#2A86C1;}
	.st17{fill:#1076AD;}
	.st18{fill:#4B9CD6;}
	.st19{display:inline;fill:#FFFFFF;}
</style>
<g id="bg" class="st0">
	<rect x="539" y="-242.7" class="st1" width="1920" height="1080"/>
</g>
<g id="stars" class="st0">
	<g class="st2">
		<path class="st3" d="M626.8,323.6h8.6v8.6h-8.6V323.6z M626.8,340.7h8.6v8.6h-8.6V340.7z M635.4,332.2h8.6v8.6h-8.6V332.2z
			 M643.9,357.8V315h8.6v42.8H643.9z M652.5,332.2h8.6v8.6h-8.6V332.2z M661,323.6h8.6v8.6H661V323.6z M661,340.7h8.6v8.6H661V340.7
			z"/>
	</g>
	<g class="st2">
		<path class="st3" d="M673.8,358.2h3.4v3.4h-3.4V358.2z M673.8,365.1h3.4v3.4h-3.4V365.1z M677.3,361.7h3.4v3.4h-3.4V361.7z
			 M680.7,372v-17.2h3.4V372H680.7z M684.1,361.7h3.4v3.4h-3.4V361.7z M687.6,358.2h3.4v3.4h-3.4V358.2z M687.6,365.1h3.4v3.4h-3.4
			V365.1z"/>
	</g>
	<g class="st2">
		<path class="st3" d="M809.6,467.6h4.1v4.1h-4.1V467.6z M809.6,475.9h4.1v4.1h-4.1V475.9z M813.7,471.8h4.1v4.1h-4.1V471.8z
			 M817.8,484.2v-20.7h4.1v20.7H817.8z M822,471.8h4.1v4.1H822V471.8z M826.1,467.6h4.1v4.1h-4.1V467.6z M826.1,475.9h4.1v4.1h-4.1
			V475.9z"/>
	</g>
	<g class="st2">
		<path class="st3" d="M1953.8,372.4h4.1v4.1h-4.1V372.4z M1953.8,380.7h4.1v4.1h-4.1V380.7z M1957.9,376.5h4.1v4.1h-4.1V376.5z
			 M1962,388.9v-20.6h4.1V389h-4.1V388.9z M1966.2,376.5h4.1v4.1h-4.1V376.5z M1970.3,372.4h4.1v4.1h-4.1V372.4z M1970.3,380.7h4.1
			v4.1h-4.1V380.7z"/>
	</g>
	<g class="st2">
		<path class="st3" d="M910.9,280.8h5.6v5.6h-5.6V280.8z M910.9,292h5.6v5.6h-5.6V292z M916.5,286.4h5.6v5.6h-5.6V286.4z M922,303.2
			v-27.9h5.6v27.9H922z M927.6,286.4h5.6v5.6h-5.6V286.4z M933.2,280.8h5.6v5.6h-5.6V280.8z M933.2,292h5.6v5.6h-5.6V292z"/>
	</g>
	<g class="st2">
		<path class="st3" d="M1002,436h5.9v5.9h-5.9V436z M1002,447.7h5.9v5.9h-5.9V447.7z M1007.9,441.8h5.9v5.9h-5.9V441.8z
			 M1013.8,459.5V430h5.9v29.5H1013.8z M1019.7,441.8h5.9v5.9h-5.9V441.8z M1025.6,436h5.9v5.9h-5.9V436z M1025.6,447.7h5.9v5.9
			h-5.9V447.7z"/>
	</g>
	<g class="st2">
		<path class="st3" d="M2074,289.8h4.8v4.3h-4.8V289.8z M2074,298.3h4.8v4.3h-4.8V298.3z M2078.7,294.1h4.8v4.3h-4.8V294.1z
			 M2083.5,306.9v-21.3h4.8v21.3H2083.5z M2088.2,294.1h4.8v4.3h-4.8V294.1z M2093,289.8h4.8v4.3h-4.8V289.8z M2093,298.3h4.8v4.3
			h-4.8V298.3z"/>
	</g>
	<g class="st2">
		<path class="st3" d="M2336.8,202.9h8.7v8.7h-8.7V202.9z M2336.8,220.3h8.7v8.7h-8.7V220.3z M2345.5,211.6h8.7v8.7h-8.7V211.6z
			 M2354.2,237.7v-43.5h8.7v43.5H2354.2z M2362.9,211.6h8.7v8.7h-8.7V211.6z M2371.6,202.9h8.7v8.7h-8.7V202.9z M2371.6,220.3h8.7
			v8.7h-8.7V220.3z"/>
	</g>
	<g class="st2">
		<path class="st3" d="M2248.7,355.7h5.7v5.7h-5.7V355.7z M2248.7,367.2h5.7v5.7h-5.7V367.2z M2254.4,361.4h5.7v5.7h-5.7V361.4z
			 M2260.1,378.6V350h5.7v28.6H2260.1z M2265.8,361.4h5.7v5.7h-5.7V361.4z M2271.6,355.7h5.7v5.7h-5.7V355.7z M2271.6,367.2h5.7v5.7
			h-5.7V367.2z"/>
	</g>
	<g class="st2">
		<path class="st3" d="M761.4,239h4.4v4.4h-4.4V239z M761.4,247.8h4.4v4.4h-4.4V247.8z M765.8,243.4h4.4v4.4h-4.4V243.4z
			 M770.2,256.6v-22h4.4v22H770.2z M774.6,243.4h4.4v4.4h-4.4V243.4z M779,239h4.4v4.4H779V239z M779,247.8h4.4v4.4H779V247.8z"/>
	</g>
	<g class="st2">
		<path class="st3" d="M2188.3,144.4h2.8v2.8h-2.8V144.4z M2188.3,150.1h2.8v2.8h-2.8V150.1z M2191.2,147.3h2.8v2.8h-2.8V147.3z
			 M2194,155.8v-14.2h2.8v14.2H2194z M2196.9,147.3h2.8v2.8h-2.8V147.3z M2199.7,144.4h2.8v2.8h-2.8V144.4z M2199.7,150.1h2.8v2.8
			h-2.8V150.1z"/>
	</g>
</g>
<g id="earth">
	<g>
		<g>
			<circle class="st4" cx="1499" cy="1972.3" r="1480.4"/>
			<path class="st3" d="M1499,3456.1c-200.3,0-394.6-39.2-577.6-116.6c-87.9-37.2-172.7-83.2-252.1-136.8
				c-78.6-53.1-152.5-114-219.6-181.2c-67.1-67.1-128.1-141-181.2-219.6c-53.6-79.3-99.6-164.1-136.8-252.1
				c-77.4-182.9-116.6-377.3-116.6-577.6s39.2-394.6,116.6-577.6c37.2-87.9,83.2-172.7,136.8-252.1c53.1-78.6,114-152.5,181.2-219.6
				c67.1-67.1,141-128.1,219.6-181.2c79.3-53.6,164.1-99.6,252.1-136.8c183-77.3,377.3-116.5,577.6-116.5s394.6,39.2,577.6,116.6
				c87.9,37.2,172.7,83.2,252.1,136.8c78.6,53.1,152.5,114,219.6,181.2c67.1,67.1,128.1,141,181.2,219.6
				c53.6,79.3,99.6,164.1,136.8,252.1c77.4,182.9,116.6,377.3,116.6,577.6s-39.2,394.6-116.6,577.6
				c-37.2,87.9-83.2,172.7-136.8,252.1c-53.1,78.6-114,152.5-181.2,219.6c-67.1,67.1-141,128.1-219.6,181.2
				c-79.3,53.6-164.1,99.6-252.1,136.8C1893.6,3416.9,1699.3,3456.1,1499,3456.1z M1499,495.4c-199.4,0-392.8,39-574.9,116.1
				c-87.5,37-171.9,82.8-250.9,136.2C595,800.5,521.5,861.2,454.6,928c-66.8,66.8-127.5,140.4-180.3,218.6
				c-53.3,79-99.2,163.4-136.2,250.9C61.1,1579.6,22,1773,22,1972.4s39,392.8,116.1,574.9c37,87.5,82.8,171.9,136.2,250.9
				c52.8,78.2,113.5,151.7,180.3,218.6c66.8,66.8,140.4,127.5,218.6,180.3c79,53.3,163.4,99.2,250.9,136.2
				c182.1,77,375.5,116.1,574.9,116.1s392.8-39,574.9-116.1c87.5-37,171.9-82.8,250.9-136.2c78.2-52.8,151.7-113.5,218.6-180.3
				c66.8-66.8,127.5-140.4,180.3-218.6c53.3-79,99.2-163.4,136.2-250.9c77-182.1,116.1-375.5,116.1-574.9s-39-392.8-116.1-574.9
				c-37-87.5-82.8-171.9-136.2-250.9c-52.8-78.2-113.5-151.7-180.3-218.6c-66.8-66.8-140.4-127.5-218.6-180.3
				c-79-53.3-163.4-99.2-250.9-136.2C1891.8,534.5,1698.4,495.4,1499,495.4z"/>
		</g>
		<path class="st5" d="M1196.4,866.9l46.4-48.1l75-30.3L1215,688.2l73.3-73.3l13.4-80.9c0,0-245.4,32.3-438.9,131.5L995,737.1
			l-59.9,87.7l88.5,15.2l85.1-19.4L1196.4,866.9z"/>
		<path class="st5" d="M1503.1,605.5l-42.6,21.8l-25.6,26.9l19.4,36.8l61.3,2.5l-12.8-44.6l19.4-14.3L1503.1,605.5z"/>
		<path class="st5" d="M2164.5,681.7c0,0-338-150.3-540.5-156.8l134,158.8l104.5,70.8l-16.7,70.4l60.4,51l-42.9,50l4.9,58.2
			l123.5-6.1l172.9-59.4l-123.9-144.8L2164.5,681.7z"/>
		<path class="st5" d="M2164.5,681.7c0,0-257-132.7-540.5-156.8l134,158.8"/>
	</g>
</g>
<g id="logo" class="st0">
	<g class="st2">
		<g>
			<g>
				<g>
					<path class="st6" d="M1627.7,316.9c-38.6-10.6-64.4-38.6-81-60.3c11.5-13,25.1-33.8,26.2-68.8c32.4,0,38.3-2.7,51.6-23.3l13-20
						v-11.3l-14.1,21.5l-5.2,3.8c-8.7,6.3-10.3,7.5-24.7,7.5c-3,0-5.9-0.2-9-0.4c-3.1-0.2-6.3-0.4-9.6-0.4c-37.1,0-53.1,7.1-68,21.9
						c-2.6-7-5.4-15.2-7.4-22.2c0.1,0,0.2-0.1,0.2-0.1c13.9-4.9,46.5-16.4,46.5-43.2c0-15.9-15.4-29.4-33.7-29.4
						c-26.1,0-44.3,18.6-44.3,45.2c0,8.5,1.4,16.9,3,24.5c-19.4,7.3-65.9,29.1-65.9,70.1c0,34.7,31.7,48.7,58.8,50.1l27.9,1.4v-1.6
						c1.4,0.1,2.8,0.1,4.3,0.1c15.5,0,24.2-4.7,29.7-8.8c18.5,23.7,46.4,52.2,78.9,61.2l1.2,0.3l42.6-12.9v-11.3L1627.7,316.9z
						 M1511.4,106.7c7.3,0,11.7,4,11.7,10.8c0,18.4-15.9,28.2-27.2,33.8c-1.6-5-3.1-11.2-3.1-20.3
						C1492.8,117.1,1502.7,106.7,1511.4,106.7z M1434.2,231.6c0-21.8,14-41.1,40.5-56l-16.1,15.9l-7.4,2.7l-0.8,0.9
						c-6.4,7.6-14,19.6-14,33c0,16.7,7.6,31.2,20,40.9C1445.9,262.8,1434.2,251.5,1434.2,231.6z M1495,268.9
						c-24.2,0-43.9-18.3-43.9-40.7c0-14.8,8.2-23.9,13.1-29.3l12.5-14v-3.6c9.3,29.5,22.5,55.6,41,81.1
						C1511,266.6,1502.9,268.9,1495,268.9z M1512.1,199.6c9.5-8.6,18.6-12.5,41.3-12.5h0.3c1.2,5.1,1.9,9.7,1.9,14
						c0,15.2-6.1,30.7-17.1,44.1C1528.8,231.9,1519.1,215,1512.1,199.6z"/>
					<g>
						<g>
							<path class="st7" d="M1606,323.5l-1.2-0.3c-32.4-9-60.4-37.5-78.9-61.2c-5.5,4.1-14.2,8.8-29.7,8.8c-3.3,0-6.6-0.2-9.8-0.7
								l5.5,2.1l-27.9-1.4c-27.1-1.4-58.8-15.4-58.8-50.1c0-41,46.5-62.8,65.9-70.1c-1.6-7.5-3-16-3-24.5
								c0-26.6,18.2-45.2,44.3-45.2c18.3,0,33.7,13.5,33.7,29.4c0,26.8-32.6,38.3-46.5,43.2c-0.1,0-0.2,0.1-0.2,0.1
								c2.1,7,4.8,15.3,7.4,22.2c14.9-14.8,30.8-21.9,68-21.9c3.3,0,6.5,0.2,9.6,0.4c3.1,0.2,6,0.4,9,0.4c14.4,0,16-1.1,24.7-7.5
								l19.3-14.1l-13,20c-13.4,20.5-19.2,23.2-51.6,23.3c-1.1,35-14.7,55.8-26.2,68.8c17.3,22.6,44.4,52,85.8,61.5l16.1,3.7
								L1606,323.5z M1529.6,252.3l0.6,0.8c17.4,23,44.5,52.1,75.8,61.3l10.2-3.1c-37.7-13.5-62.6-42.1-78.6-63.5l-2.2-2.9l0.1-0.1
								l-0.7-1c-11.1-14.5-22.6-34.1-30.6-51.8l-0.1,0.1l-2.4-5.7l0,0l-0.3-0.7c-3.9-9.4-8.6-23.2-11.4-33.6l-1-3.8l0.4-0.2
								l-0.6-1.7c-2-5.8-4.7-13.8-4.7-26.5c0-11.2,4.8-20.5,11.3-26.4c-11.5,5.6-18.3,17.2-18.3,32.7c0,8.7,1.6,17.3,3.4,25.3
								l0.2-0.1l1.4,5.2c9.5,34.6,23.9,64.2,45.5,93.1L1529.6,252.3z M1475.1,164.2c-26.7,14.9-40.8,34.3-40.8,56.2
								c0,19.8,11.6,31.2,22.4,37.5c-12.4-9.7-20-24.2-20-40.9c0-13.4,7.6-25.4,14-33l0.8-0.9l25.5-9.4l-12.5,14
								c-4.9,5.4-13.1,14.6-13.1,29.3c0,22.4,19.7,40.7,43.9,40.7c7.9,0,16-2.3,22.8-6.4C1498.1,224,1484.4,196.1,1475.1,164.2z
								 M1451.7,169.4c-18.1,10.4-37.6,27.2-37.6,51.2c0,20.8,13.4,31.1,26.5,36.2c-8.4-8-15.2-19.7-15.2-36.5
								C1425.4,206.1,1430.6,187.1,1451.7,169.4z M1512.1,188.4c6.9,15.4,16.7,32.3,26.3,45.7c11.1-13.5,17.1-29,17.1-44.1
								c0-4.2-0.6-8.9-1.9-14h-0.3C1530.7,175.9,1521.6,179.8,1512.1,188.4z M1553.4,167.1h7.1l0.9,3.2c1.2,4.1,2,8,2.5,11.8
								c0.2-3.2,0.4-6.6,0.4-10v-4.4h8.1c18.3,0,26.6-0.6,32.7-4.6c-3,0.4-6.7,0.5-11.4,0.5c-3.3,0-6.5-0.2-9.6-0.4
								c-3.1-0.2-6-0.4-9-0.4c-19.3,0-32.2,1.9-42.2,6C1538.4,167.6,1545.1,167.1,1553.4,167.1z M1511.4,95.4
								c-8.8,0-18.6,10.4-18.6,24.3c0,9.1,1.5,15.3,3.1,20.3c11.3-5.6,27.2-15.4,27.2-33.8C1523.1,99.5,1518.7,95.4,1511.4,95.4z
								 M1528.6,94.8c2.1,3.1,3.3,7,3.3,11.5c0,13.4-6.6,23.2-14.5,30.2c10.5-5.8,20-14.1,20-26.2
								C1537.5,104.3,1534,98.7,1528.6,94.8z"/>
						</g>
						<g>
							<path class="st3" d="M1461.7,183.8c-4.9,5.5-14.9,15.8-14.9,33c0,24.4,21,45.1,48.3,45.1c10.1,0,20.7-3.4,29-9.8
								c-23-30.7-37.1-60.9-46.3-94.5c-13.5,6.9-48,26.4-48,62.6c0,30.5,24.7,42.2,34.5,46c-22.1-1.1-54.6-11.8-54.6-45.7
								c0-41.4,51.7-62.1,66.7-67.2c-2-8.9-3.7-18.1-3.7-27.3c0-24.4,16.1-40.8,39.9-40.8c16.1,0,29.3,11.8,29.3,25
								c0,26.4-37.4,36.5-47.7,40.5c2.6,9.5,7.2,23.3,11.2,33c15.8-17.5,29.9-25.6,69.5-25.6c6.3,0,12.4,0.9,18.7,0.9
								c15.2,0,17.8-1.4,27.3-8.3c-12.4,19-16.4,21.3-48.6,21.3h-3.7c0,35.1-12.4,56.6-27.6,73c18.7,25,46.8,56,90.5,66.1l-25.6,7.8
								c-34.2-9.5-63.2-42-79.3-63.2c-5.2,4.3-12.9,10.6-30.5,10.6c-33,0-55.2-22.7-55.2-49.4c0-10.9,5.7-21.5,12.9-30.2
								L1461.7,183.8z M1493.3,146.2c10.9-5.2,34.2-16.1,34.2-39.9c0-8.3-5.5-15.2-16.1-15.2c-10.9,0-23,12.1-23,28.7
								C1488.4,132.7,1491.3,140.2,1493.3,146.2z M1553.4,171.5c-25.3,0-35.3,4.9-46.5,15.8c7.5,17.2,19.3,37.9,31.3,53.7
								c3.4-3.7,21.8-23.3,21.8-51.1c0-6-1.1-12.4-2.9-18.4H1553.4z"/>
						</g>
					</g>
				</g>
				<g>
					<path class="st8" d="M1894.2,195.3l-18.3-24v24h-22.1c-6.7,0-12.6,2.2-17.5,6.5c-0.5,0.4-1,0.9-1.5,1.4
						c-2.7,2.7-4.7,5.7-5.9,8.9c-0.7,1.8-1.2,3.7-1.5,5.6c-0.2,1.4-0.3,2.9-0.3,4.4c0,0.8,0,1.6,0.1,2.5c0.2,1.8,0.5,3.7,1.2,5.6
						c1,3.2,2.9,6.6,5.9,9.7c1,1,2,2,3.2,3H1820l-9.5-0.1c-1.8,0-2.4-0.4-2.4-0.4l-0.8-0.8l-0.4-0.4l-5.3-5.2l-0.2-0.2l0.2-0.3
						l5.3-8l0.4-0.5l1.6-2.4l3-4.5l4.7-7.1l1.8-2.7l3.4-5.1l0,0l6.6-9.9l-5.1-6.7l-3.5-4.6l-3.5-4.5l-6.2-8.2l-15.9,24h-3.5
						l-9.2,13.9v-13.9l-0.5-0.6l-5.7-7.5l-3.6-4.8l-3.6-4.7l-4.9-6.4v24H1583c-5.2,0-10.1,0.9-14.6,2.7c-5,1.9-9.5,5-13.6,9.1
						c-1.1,1.1-2.2,2.3-3.2,3.6l0,0c-1.8,2.3-3.4,4.7-4.6,7.1c-0.9,1.8-1.6,3.6-2.2,5.4l-8-4.7l0,0l-6.3-3.7l-5.8-3.4
						c0,11,3.9,20.5,11.7,28.3c7.8,7.8,17.3,11.7,28.3,11.7h18.3v24h198.5v-13.1l-18.3-24l5.1,5.1c5.3,5.3,11.6,8,18.7,8l18.3,24
						h54.9l-18.3-24c7.4,0,13.7-2.6,18.9-7.9c4.4-4.4,7-9.7,7.6-15.8l0,0l18.5,20.8c0-6-1.9-14.1-10.4-20.8h17.8v-32.4H1894.2z
						 M1744.3,227.6h4.6v15.3h-4.6V227.6z M1675.6,227.6h4.6v15.3h-4.6V227.6z M1575.4,235.3c0-2,0.6-3.6,1.8-5
						c0.1-0.1,0.3-0.3,0.4-0.4s0.2-0.2,0.4-0.3c1.4-1.3,3-1.9,4.9-1.9h2.1V243h-2.2c-2.1,0-3.7-0.7-5.2-2.2
						c-0.2-0.3-0.5-0.5-0.6-0.8C1575.9,238.6,1575.4,237.1,1575.4,235.3z"/>
					<g>
						<polygon class="st9" points="1809.9,171.3 1783.1,211.9 1779.8,215.6 1790.9,224.5 1812.6,219 1814.8,215.6 1816.2,179.5 
													"/>
					</g>
					<g>
						<polygon class="st10" points="1858.1,203.6 1876.5,227.6 1894.3,227.6 1875.9,203.6 						"/>
						<polygon class="st10" points="1726,203.6 1744.3,227.6 1748.9,227.6 1730.5,203.6 						"/>
						<polygon class="st10" points="1657.3,203.6 1675.6,227.6 1680.2,227.6 1661.9,203.6 						"/>
						<polygon class="st10" points="1763,251.3 1781.4,275.2 1582.9,275.2 1582.9,251.3 						"/>
						<polygon class="st10" points="1805.2,275.2 1860.1,275.2 1841.8,251.3 1786.9,251.3 						"/>
					</g>
					<g>
						
							<linearGradient id="SVGID_1_" gradientUnits="userSpaceOnUse" x1="1779.7231" y1="333.8254" x2="1788.474" y2="340.516" gradientTransform="matrix(1 0 0 -1 0 593.84)">
							<stop  offset="0" style="stop-color:#D34040"/>
							<stop  offset="0.5998" style="stop-color:#C12B2A"/>
							<stop  offset="1" style="stop-color:#B92221"/>
						</linearGradient>
						<path class="st11" d="M1805.2,275.2c-7.1,0-13.4-2.7-18.7-8l-5.1-5.1l-18.3-24l5.1,5.1c5.3,5.3,11.6,8,18.7,8L1805.2,275.2z"
							/>
						
							<linearGradient id="SVGID_2_" gradientUnits="userSpaceOnUse" x1="1881.6248" y1="352.2704" x2="1851.8026" y2="329.4697" gradientTransform="matrix(1 0 0 -1 0 593.84)">
							<stop  offset="0" style="stop-color:#D34040"/>
							<stop  offset="0.5998" style="stop-color:#C12B2A"/>
							<stop  offset="1" style="stop-color:#B92221"/>
						</linearGradient>
						<path class="st12" d="M1886.9,248.4c0,7.4-2.6,13.7-7.8,19c-5.2,5.2-11.6,7.8-18.9,7.8l-18.3-24c7.4,0,13.7-2.6,18.9-7.9
							c4.4-4.4,7-9.7,7.6-15.8l0,0L1886.9,248.4z"/>
						
							<linearGradient id="SVGID_3_" gradientUnits="userSpaceOnUse" x1="1524.6001" y1="350.51" x2="1582.9" y2="350.51" gradientTransform="matrix(1 0 0 -1 0 593.84)">
							<stop  offset="0" style="stop-color:#D34040"/>
							<stop  offset="0.5998" style="stop-color:#C12B2A"/>
							<stop  offset="1" style="stop-color:#B92221"/>
						</linearGradient>
						<path class="st13" d="M1582.9,251.3v24c-26.2,0-58.3-6.1-58.3-63.9c0,11,3.9,20.5,11.7,28.3s17.3,11.7,28.3,11.7h18.3V251.3z"
							/>
						
							<linearGradient id="SVGID_4_" gradientUnits="userSpaceOnUse" x1="1559.3934" y1="376.8853" x2="1568.527" y2="388.8315" gradientTransform="matrix(1 0 0 -1 0 593.84)">
							<stop  offset="0" style="stop-color:#D34040"/>
							<stop  offset="0.5998" style="stop-color:#C12B2A"/>
							<stop  offset="1" style="stop-color:#B92221"/>
						</linearGradient>
						<path class="st14" d="M1566.7,203.6v15.3h-2.2c-2.1,0-3.7-0.7-5.2-2.2s-2.2-3.3-2.2-5.5s0.7-3.9,2.2-5.5
							c1.5-1.5,3.2-2.2,5.3-2.2h2.1V203.6z"/>
					</g>
					<g>
						<g>
							<path class="st15" d="M1564.5,171.3c-10.9,0-20.4,3.9-28.2,11.7c-7.8,7.8-11.7,17.3-11.7,28.2c0,11,3.9,20.5,11.7,28.3
								c7.8,7.8,17.3,11.7,28.3,11.7h34.7v-79.9H1564.5z M1588,240h-23.4c-8,0-14.7-2.7-20.3-8.4c-3.5-3.5-5.9-7.4-7.2-11.7
								c-0.1-0.5-0.3-0.9-0.4-1.4l0,0c-0.5-2.3-0.8-4.6-0.8-7.1c0-8,2.7-14.6,8.4-20.3c5.7-5.7,12.3-8.4,20.2-8.4h23.4v9.7h-23.3
								c-5.1,0-9.7,1.9-13.3,5.6c-3.6,3.7-5.5,8.2-5.5,13.4c0,2.3,0.4,4.4,1.1,6.5c0.9,2.6,2.4,4.9,4.4,6.9
								c3.6,3.7,8.2,5.6,13.3,5.6h13.5v-16h10L1588,240L1588,240z M1564.6,203.6h2.1v15.3h-2.2c-2.1,0-3.7-0.7-5.2-2.2
								s-2.2-3.3-2.2-5.5s0.7-3.9,2.2-5.5C1560.8,204.3,1562.5,203.6,1564.6,203.6z"/>
							<path class="st15" d="M1667.9,251.3h-74.6v-80h74.6v32.3h-10.6v15.3h10.6V251.3z M1604.5,240h52.1v-9.7h-42.1v-16.7h31.6V209
								h-31.6v-16.7h42.1v-9.7h-52.1V240z"/>
							<path class="st15" d="M1736.5,251.3h-74.6v-80h74.6v32.3H1726v15.3h10.6L1736.5,251.3L1736.5,251.3z M1673.2,240h52.1v-9.7
								h-42.1v-16.7h31.6V209h-31.6v-16.7h42.1v-9.7h-52.1V240z"/>
							<path class="st15" d="M1792.2,218.9c-1.8,0-2.4-0.4-2.4-0.4l-6.7-6.6l11-16.6l15.9-24h-37.7l-4.3,6.4l-4.9,7.4v-13.8h-32.5
								v80h32.5v-13.1l5.1,5.1c5.3,5.3,11.6,8,18.7,8h20.4v-32.2l-5-0.1L1792.2,218.9z M1796,240h-9.1c-4.1,0-7.6-1.5-10.8-4.7
								l-19.8-19.7l18.8-28.4l3.1-4.6h10.7l-8,12.1l-12.4,18.7l13.3,13.1c2.4,2.4,5.9,3.7,10.2,3.7h3.9v9.8H1796z M1741.8,182.6h10
								V240h-10V182.6z"/>
							<path class="st15" d="M1821.7,205.2l-3.4,5.1c2.1,2.8,5.1,5.2,8.9,7.3l0.1,0.1c0.3-2,0.8-3.8,1.5-5.6
								C1825.2,209.9,1823,207.5,1821.7,205.2z M1835.4,171.3c-7.4,0-13.7,2.6-18.9,7.9c-0.1,0.1-0.2,0.2-0.3,0.3
								c-5,5.1-7.5,11.4-7.5,18.6c0,6,2,14.1,10.4,20.8h-17.8v32.4h40.5c7.4,0,13.7-2.6,18.9-7.9c4.4-4.4,7-9.7,7.6-15.8l0,0
								c0.1-1,0.2-2.1,0.2-3.1c0-6-1.9-14.1-10.4-20.8h17.8v-32.4H1835.4z M1864.6,192.4h-23.2l-0.9,0.3c-2.9,1-4.8,3.6-4.8,6.6
								c0,0.9,0.2,1.7,0.5,2.5c0.2,0.5,0.4,1,0.6,1.4l0.8,1.3l9.6,5.4c9,5,10,10.7,10,14.6c0,4.3-1.5,7.9-4.5,11s-6.6,4.5-11,4.5
								h-29.2v-9.7h23.2l0.9-0.3c2.9-1,4.8-3.6,4.8-6.6c0-1.4-0.4-2.7-1.1-3.9l-0.8-1.3l-9.6-5.4c-0.4-0.2-0.7-0.4-1.1-0.6
								c-3.7-2.2-5.9-4.6-7.2-6.9l0,0c-1.5-2.6-1.8-5.1-1.8-7c0-3.7,1.1-6.8,3.2-9.5c0.4-0.5,0.8-1,1.3-1.5c3-3.1,6.6-4.5,11-4.5
								h29.2L1864.6,192.4L1864.6,192.4z"/>
						</g>
						<g>
							<path class="st3" d="M1593.6,245.6h-29c-9.5,0-17.6-3.3-24.3-10c-6.7-6.7-10-14.8-10-24.3c0-9.4,3.4-17.5,10.1-24.2
								c6.7-6.7,14.8-10.1,24.2-10.1h29v21h-29c-3.7,0-6.8,1.3-9.3,3.9c-2.6,2.6-3.8,5.7-3.8,9.4c0,3.7,1.3,6.8,3.8,9.4
								s5.6,3.9,9.3,3.9h7.8v-15.9h21.2V245.6z"/>
							<path class="st3" d="M1662.2,245.6h-63.4V177h63.4v21h-42.1v5.4h31.6v15.8h-31.6v5.4h42.1V245.6z"/>
							<path class="st3" d="M1730.9,245.6h-63.4V177h63.4v21h-42.1v5.4h31.6v15.8h-31.6v5.4h42.1V245.6z"/>
							<path class="st3" d="M1801.6,245.6h-14.8c-5.6,0-10.5-2.1-14.7-6.3l-14.8-14.7v21h-21.2V177h21.2v26.9l17.8-26.9h24.2
								l-23.6,35.6l10,9.9c1.3,1.3,3.4,2,6.3,2l9.5,0.1L1801.6,245.6L1801.6,245.6z"/>
							<path class="st3" d="M1870.3,198h-27.9c-0.6,0.2-0.9,0.6-0.9,1.3c0,0.4,0.1,0.7,0.3,1.1l8.2,4.7c8.6,4.8,12.9,11.3,12.9,19.5
								c0,5.9-2.1,10.8-6.2,15c-4.1,4.1-9.1,6.2-14.9,6.2h-34.9v-21h27.9c0.6-0.2,0.9-0.6,0.9-1.3c0-0.4-0.1-0.7-0.3-1.1l-8.2-4.7
								c-8.6-4.8-12.9-11.3-12.9-19.5c0-5.9,2.1-10.8,6.2-15c4.1-4.1,9.1-6.2,14.9-6.2h34.9V198z"/>
						</g>
					</g>
				</g>
				<g>
					<path class="st16" d="M1466.8,185.5h-11.6v-6h11.6l16.9-26.8h-16.9v-2h-46.7v-26.8l-16.9,26.8v11.6h-8h-3.7h-8v-11.6h-46.7
						v-26.8l-16.9,26.8v11.6h-8v-11.6h-60.6h-3.1h-57.7h-2.9H1167v-26.8l-16.9,26.8v11.6h-6v-11.6h-23.5v-26.8l-16.9,26.8V226h36
						h4.4l6-9.5v9.5h37.5h2.9h57.7h3.1h68.5h3.6h55.6h4.4l7.3-11.6h0.6V226h54.6h9.1l7.3-11.6h4.3l16.9-26.8l-16.9-1.5v-0.6H1466.8z
						 M1319.9,197.1h-8v-6h8V197.1z M1400.5,197.1h-5.3v-6h5.3V197.1z"/>
					<g>
						<polygon class="st17" points="1336.9,164.3 1319.9,191.1 1312,191.1 1328.9,164.3 						"/>
						<polygon class="st17" points="1420.1,164.3 1403.2,191.1 1395.2,191.1 1412.1,164.3 						"/>
					</g>
					<g>
						<polygon class="st17" points="1120.7,199.2 1103.7,226 1144.2,226 1161.1,199.2 						"/>
						<polygon class="st17" points="1167.1,199.2 1150.2,226 1383.6,226 1400.5,199.2 						"/>
						<polygon class="st17" points="1408.5,199.2 1391.6,226 1455.2,226 1472.2,199.2 						"/>
						<polygon class="st17" points="1408.5,187.6 1391.6,214.3 1390.9,214.3 1400.5,199.2 1400.5,187.6 						"/>
						<polygon class="st17" points="1483.8,187.6 1472.2,187.6 1472.2,199.2 1462.6,214.3 1466.8,214.3 						"/>
						<polygon class="st17" points="1483.8,152.7 1472.2,152.7 1472.2,158.7 1480,158.7 						"/>
					</g>
					<g>
						<g>
							<path class="st18" d="M1207.6,199.2h-40.4v-11.6h-6v11.6h-40.4v-75.3h40.4v11.6h6v-11.6h40.4V199.2z M1184.3,182h6v-40.9h-6
								v23.2h-11.6v6h11.6V182z M1137.9,182h6v-23.2h11.6v-6h-11.6v-11.6h-6V182z"/>
							<path class="st18" d="M1268.3,199.2h-63.7v-75.3h63.7V199.2z M1221.9,182h6v-40.9h-6V182z"/>
							<path class="st18" d="M1340.5,199.2h-75.3v-75.3h63.7v11.6h11.6v28.8h-11.6v6h11.6V199.2z M1282.4,182h6v-11.6h23.2v-6h-23.2
								v-23.2h-6V182z"/>
							<path class="st18" d="M1400.5,199.2h-63.7v-75.3h63.7v11.6h11.6v52h-11.6V199.2z M1354.1,182h6v-40.9h-6V182z M1388.9,170.4
								h6v-17.6h-6V170.4z"/>
							<polygon class="st18" points="1472.2,199.2 1408.5,199.2 1408.5,170.4 1420.1,170.4 1420.1,164.3 1408.5,164.3 1408.5,135.5 
								1420.1,135.5 1420.1,123.9 1483.8,123.9 1483.8,152.7 1472.2,152.7 1472.2,158.7 1483.8,158.7 1483.8,187.6 1472.2,187.6 
															"/>
						</g>
						<g>
							<path class="st3" d="M1129.3,190.6v-58.1h23.2v11.6h11.6v11.6h11.6v-23.2h23.3v58.1h-23.2V179h-11.6v-11.7h-11.6v23.2
								L1129.3,190.6L1129.3,190.6z"/>
							<path class="st3" d="M1259.7,144.1h-23.2v11.6h23.2v11.6h-23.2v11.6h23.2v11.6h-46.5v-58.1h46.5V144.1z"/>
							<path class="st3" d="M1273.8,190.6v-58.1h46.5v11.6h11.6v11.6h-11.6v23.2h11.6v11.6h-23.2v-11.6h-11.6v11.6L1273.8,190.6
								L1273.8,190.6z M1297.1,155.7h11.6v-11.6h-11.6V155.7z"/>
							<path class="st3" d="M1345.5,190.6v-58.1h46.5v11.6h11.6v34.8H1392v11.6h-46.5V190.6z M1380.3,144.1h-11.6v34.8h11.6V144.1z"
								/>
							<path class="st3" d="M1417.1,190.6V179h34.8v-11.7h-23.2v-11.6h-11.6v-11.6h11.6v-11.6h46.5v11.6h-34.8v11.6h23.2v11.6h11.6
								v11.6h-11.6v11.6L1417.1,190.6L1417.1,190.6z"/>
						</g>
					</g>
				</g>
			</g>
		</g>
	</g>
	<g class="st2">
		<g>
			<path class="st3" d="M1402.5-92.3v-12.2h7.3v2.4h-4.9v7.3h4.9v2.4h-7.3V-92.3z M1412.2-102.1v7.3h-2.4v-7.3H1412.2z"/>
			<path class="st3" d="M1419.6-92.3v-12.2h2.4v12.2H1419.6z"/>
			<path class="st3" d="M1436.7-102.1h-4.9v2.4h4.9v2.4h-4.9v2.4h4.9v2.4h-7.3v-12.2h7.3V-102.1z"/>
			<path class="st3" d="M1456.2-102.1h2.4v2.4h-2.4V-102.1z M1456.2-92.3v-2.4h7.3v2.4H1456.2z M1458.7-102.1v-2.4h7.3v2.4H1458.7z
				 M1458.7-97.2h4.9v-2.4h-4.9V-97.2z M1463.5-97.2h2.4v2.4h-2.4V-97.2z"/>
			<path class="st3" d="M1475.8-94.7h4.9v2.4h-7.3v-12.2h2.4V-94.7L1475.8-94.7z"/>
			<path class="st3" d="M1488-92.3v-9.8h2.4v2.4h4.9v-2.4h2.4v9.8h-2.4v-4.9h-4.9v4.9H1488z M1490.5-104.5v2.4h4.9v-2.4H1490.5z"/>
			<path class="st3" d="M1505.1-92.3v-12.2h2.4v12.2H1505.1z M1507.5-102.1h2.4v2.4h-2.4V-102.1z M1510-99.6h2.4v2.4h-2.4V-99.6z
				 M1512.4-102.1h2.4v2.4h-2.4V-102.1z M1514.8-92.3v-12.2h2.4v12.2H1514.8z"/>
			<path class="st3" d="M1524.6-92.3v-12.2h2.4v12.2H1524.6z"/>
			<path class="st3" d="M1536.8-94.7h-2.4v-7.3h2.4V-94.7z M1544.2-102.1h-7.3v-2.4h7.3V-102.1z M1541.7-92.3h-4.9v-2.4h4.9V-92.3z
				 M1541.7-97.2h-2.4v-2.4h4.9v4.9h-2.4v-2.5H1541.7z"/>
			<path class="st3" d="M1551.6-92.3v-9.8h2.4v2.4h4.9v-2.4h2.4v9.8h-2.4v-4.9h-4.9v4.9H1551.6z M1554-104.5v2.4h4.9v-2.4H1554z"/>
			<path class="st3" d="M1568.6-92.3v-12.2h2.4v12.2H1568.6z M1571-102.1h2.4v2.4h-2.4V-102.1z M1573.5-99.6h2.4v2.4h-2.4V-99.6z
				 M1575.9-97.2h2.4v2.4h-2.4V-97.2z M1578.4-92.3v-12.2h2.4v12.2H1578.4z"/>
			<path class="st3" d="M1588.1-102.1h2.4v2.4h-2.4V-102.1z M1588.1-92.3v-2.4h7.3v2.4H1588.1z M1590.6-102.1v-2.4h7.3v2.4H1590.6z
				 M1590.6-97.2h4.9v-2.4h-4.9V-97.2z M1595.5-97.2h2.4v2.4h-2.4V-97.2z"/>
		</g>
		<g>
			<path class="st3" d="M1422.6-73.3v-10.2h6.1v2h-4.1v2h4.1v2h-4.1v4.1L1422.6-73.3L1422.6-73.3z M1428.7-81.5h2v2h-2V-81.5z"/>
			<path class="st3" d="M1436.9-73.3v-10.2h6.1v2h-4.1v2h4.1v2h-4.1v4.1L1436.9-73.3L1436.9-73.3z M1441-77.4h2v2h-2V-77.4z
				 M1443-81.5h2v2h-2V-81.5z M1443-75.4h2v2h-2V-75.4z"/>
			<path class="st3" d="M1451.2-73.3v-6.1h2v1.5h4.1v-1.5h2v6.1h-2v-3.1h-4.1v3.1H1451.2z M1453.3-81v1.5h4.1V-81H1453.3z"/>
			<path class="st3" d="M1465.5-81.5h2v2h-2V-81.5z M1465.5-73.3v-2h6.1v2H1465.5z M1467.5-81.5v-2h6.1v2H1467.5z M1467.5-77.4h4.1
				v-2h-4.1V-77.4z M1471.6-77.4h2v2h-2V-77.4z"/>
			<path class="st3" d="M1485.9-81.5h-4.1v2h4.1v2h-4.1v2h4.1v2h-6.1v-10.2h6.1V-81.5z"/>
			<path class="st3" d="M1492-73.3v-10.2h2v10.2H1492z M1494.1-81.5h2v2h-2V-81.5z M1496.1-79.4h2v2h-2V-79.4z M1498.1-77.4h2v2h-2
				V-77.4z M1500.2-73.3v-10.2h2v10.2H1500.2z"/>
			<path class="st3" d="M1510.4-73.3v-8.2h-2v-2h6.1v2h-2v8.2H1510.4z"/>
			<path class="st3" d="M1520.6-73.3v-10.2h2v10.2H1520.6z"/>
			<path class="st3" d="M1534.9-81.5h-4.1v2h4.1v2h-4.1v2h4.1v2h-6.1v-10.2h6.1V-81.5z"/>
			<path class="st3" d="M1541-73.3v-10.2h6.1v2h-4.1v2h4.1v2h-4.1v4.1L1541-73.3L1541-73.3z M1545.1-77.4h2v2h-2V-77.4z
				 M1547.1-81.5h2v2h-2V-81.5z M1547.1-75.4h2v2h-2V-75.4z"/>
			<path class="st3" d="M1561.4-81.5h-4.1v2h4.1v2h-4.1v2h4.1v2h-6.1v-10.2h6.1V-81.5z"/>
			<path class="st3" d="M1567.6-73.3v-10.2h2v10.2H1567.6z M1569.6-81.5h2v2h-2V-81.5z M1571.6-79.4h2v2h-2V-79.4z M1573.7-77.4h2v2
				h-2V-77.4z M1575.7-73.3v-10.2h2v10.2H1575.7z"/>
			<g>
				<path class="st3" d="M1451.2-83.5h2v2h-2V-83.5z"/>
				<path class="st3" d="M1457.4-83.5h2v2h-2V-83.5z"/>
			</g>
		</g>
	</g>
	<polygon class="st19" points="2262.9,588 2262,571.6 2250,565.3 2211.3,533.9 2209.5,536.5 2246,566.2 2237.1,572.5 2211.1,558.7 
		2209.7,561.7 2235.8,575.5 2236.4,586.9 2192.3,573.7 2191.4,576.9 2238.4,590.9 2250.2,597.1 	"/>
</g>
<g id="invader" class="st0">
	<g class="st2">
		<g>
			<path class="st3" d="M886-121L886-121v-7.2h-7.3v-7.5h-7.3v-7.2h7.3v-7.3h-7.3v7.3H864v7.3h-21.8v-7.3h-7.3v-7.3h-7.3v7.3h7.3
				v7.2h-7.3v7.5h-7.3v7.2l0,0H813v22h7.3v-14.7l0,0h7.3V-99h7.3v7.3l0,0h14.6V-99h-14.6l0,0v-7.3l0,0h36.5l0,0v7.3l0,0h-14.6v7.3
				h14.6l0,0V-99h7.3v-14.7h7.3l0,0V-99h7.3v-22H886z M842.2-121h-7.3v-7.2h7.3V-121z M871.3-121H864v-7.2h7.3V-121z"/>
			<path class="st3" d="M718.6-121L718.6-121v-7.2h-7.3v-7.5H704v-7.2h7.3v-7.3H704v7.3h-7.3v7.3h-21.8v-7.3h-7.3v-7.3h-7.3v7.3h7.3
				v7.2h-7.3v7.5H653v7.2l0,0h-7.3v22h7.3v-14.7l0,0h7.3V-99h7.3v7.3l0,0h14.6V-99h-14.6l0,0v-7.3l0,0h36.5l0,0v7.3l0,0h-14.6v7.3
				h14.6l0,0V-99h7.3v-14.7h7.3l0,0V-99h7.3v-22H718.6z M674.7-121h-7.3v-7.2h7.3V-121z M703.9-121h-7.3v-7.2h7.3V-121z"/>
			<path class="st3" d="M1053.4-121L1053.4-121v-7.2h-7.3v-7.5h-7.3v-7.2h7.3v-7.3h-7.3v7.3h-7.3v7.3h-21.8v-7.3h-7.3v-7.3H995v7.3
				h7.3v7.2H995v7.5h-7.3v7.2l0,0h-7.3v22h7.3v-14.7l0,0h7.3V-99h7.3v7.3l0,0h14.6V-99h-14.6l0,0v-7.3l0,0h36.5l0,0v7.3l0,0h-14.6
				v7.3h14.6l0,0V-99h7.3v-14.7h7.3l0,0V-99h7.3v-22H1053.4z M1009.6-121h-7.3v-7.2h7.3V-121z M1038.8-121h-7.3v-7.2h7.3V-121z"/>
		</g>
		<g>
			<path class="st3" d="M2010.4-121L2010.4-121v-7.2h-7.3v-7.5h-7.3v-7.2h7.3v-7.3h-7.3v7.3h-7.3v7.3h-21.8v-7.3h-7.3v-7.3h-7.3v7.3
				h7.3v7.2h-7.3v7.5h-7.3v7.2l0,0h-7.3v22h7.3v-14.7l0,0h7.3V-99h7.3v7.3l0,0h14.6V-99h-14.6l0,0v-7.3l0,0h36.5l0,0v7.3l0,0h-14.6
				v7.3h14.6l0,0V-99h7.3v-14.7h7.3l0,0V-99h7.3v-22H2010.4z M1966.5-121h-7.3v-7.2h7.3V-121z M1995.7-121h-7.3v-7.2h7.3V-121z"/>
			<path class="st3" d="M2345.2-123.2L2345.2-123.2v-7.2h-7.3v-7.5h-7.3v-7.2h7.3v-7.3h-7.3v7.3h-7.3v7.3h-21.8v-7.3h-7.3v-7.3h-7.3
				v7.3h7.3v7.2h-7.3v7.5h-7.3v7.2l0,0h-7.3v22h7.3v-14.7l0,0h7.3v14.7h7.3v7.3l0,0h14.6v-7.3h-14.6l0,0v-7.3l0,0h36.5l0,0v7.3l0,0
				h-14.6v7.3h14.6l0,0v-7.3h7.3v-14.7h7.3l0,0v14.7h7.3v-22H2345.2z M2301.4-123.2h-7.3v-7.2h7.3V-123.2z M2330.6-123.2h-7.3v-7.2
				h7.3V-123.2z"/>
			<g>
				<g>
					<g>
						<g>
							<g>
								<rect x="2166.9" y="-121.9" class="st3" width="11" height="2.1"/>
								<rect x="2165.7" y="-123.1" class="st3" width="13.4" height="4.5"/>
							</g>
						</g>
					</g>
				</g>
				<g>
					<g>
						<g>
							<g>
								<rect x="2111.8" y="-121.9" class="st3" width="11" height="2.1"/>
								<rect x="2110.6" y="-123.1" class="st3" width="13.4" height="4.5"/>
							</g>
						</g>
					</g>
				</g>
				<g>
					<g>
						<g>
							<g>
								<rect x="2143.9" y="-98.9" class="st3" width="2.1" height="11"/>
								<rect x="2142.7" y="-100.1" class="st3" width="4.5" height="13.4"/>
							</g>
						</g>
					</g>
				</g>
				<g>
					<g>
						<g>
							<g>
								<rect x="2143.9" y="-154" class="st3" width="2.1" height="11"/>
								<rect x="2142.7" y="-155.2" class="st3" width="4.5" height="13.4"/>
							</g>
						</g>
					</g>
				</g>
				<g>
					<g>
						<g>
							<g>
								
									<rect x="2159.8" y="-102.1" transform="matrix(0.7071 0.7071 -0.7071 0.7071 562.6298 -1560.3192)" class="st3" width="9.9" height="2.1"/>
								
									<rect x="2158.7" y="-103.4" transform="matrix(-0.7071 -0.7071 0.7071 -0.7071 3767.0588 1358.1104)" class="st3" width="12.3" height="4.5"/>
							</g>
						</g>
					</g>
				</g>
				<g>
					<g>
						<g>
							<g>
								
									<rect x="2120.1" y="-141.9" transform="matrix(0.7071 0.7071 -0.7071 0.7071 522.8192 -1543.8745)" class="st3" width="9.9" height="2.1"/>
								
									<rect x="2118.8" y="-143" transform="matrix(-0.7071 -0.7071 0.7071 -0.7071 3727.0591 1262.33)" class="st3" width="12.3" height="4.5"/>
							</g>
						</g>
					</g>
				</g>
				<g>
					<g>
						<g>
							<g>
								
									<rect x="2163.8" y="-145.7" transform="matrix(0.7071 0.7071 -0.7071 0.7071 534.5002 -1571.9969)" class="st3" width="2.1" height="9.9"/>
								
									<rect x="2162.5" y="-147" transform="matrix(-0.7072 -0.707 0.707 -0.7072 3795.3188 1290.0414)" class="st3" width="4.5" height="12.3"/>
							</g>
						</g>
					</g>
				</g>
				<g>
					<g>
						<g>
							<g>
								
									<rect x="2123.9" y="-106" transform="matrix(0.7071 0.7071 -0.7071 0.7071 550.9416 -1532.1897)" class="st3" width="2.1" height="9.9"/>
								
									<rect x="2122.8" y="-107.2" transform="matrix(-0.707 -0.7072 0.7072 -0.707 3699.051 1330.3118)" class="st3" width="4.5" height="12.3"/>
							</g>
						</g>
					</g>
				</g>
			</g>
		</g>
	</g>
</g>
<g id="sputnik" class="st0">
</g>
</svg>
